<!DOCTYPE svg PUBLIC "-//W3C//DTD SVG 1.1//EN" "http://www.w3.org/Graphics/SVG/1.1/DTD/svg11.dtd">
<!-- Uploaded to: SVG Repo, www.svgrepo.com, Transformed by: SVG Repo Mixer Tools -->
<svg fill="#ffffff" width="194px" height="194px" viewBox="-25.6 -25.6 307.20 307.20" id="Flat" xmlns="http://www.w3.org/2000/svg" stroke="#ffffff" stroke-width="0.00256">
<g id="SVGRepo_bgCarrier" stroke-width="0" transform="translate(0,0), scale(1)">
<rect x="-25.6" y="-25.6" width="307.20" height="307.20" rx="76.8" fill="#0284c7" strokewidth="0"/>
</g>
<g id="SVGRepo_tracerCarrier" stroke-linecap="round" stroke-linejoin="round" stroke="#CCCCCC" stroke-width="1.024"/>
<g id="SVGRepo_iconCarrier"> <path d="M171.40967,157.43848a12,12,0,1,1-16.69043,17.24609,38.77834,38.77834,0,0,0-53.4541,0,12,12,0,0,1-16.69043-17.24609,62.77622,62.77622,0,0,1,86.835,0ZM127.99219,92.00293a109.717,109.717,0,0,0-77.42871,31.5625,12.00016,12.00016,0,0,0,16.83007,17.11035,86.75415,86.75415,0,0,1,121.19727,0,12.00016,12.00016,0,1,0,16.83008-17.11035A109.717,109.717,0,0,0,127.99219,92.00293Zm111.36767-2.354a158.68112,158.68112,0,0,0-222.73535,0,11.99993,11.99993,0,1,0,16.87891,17.06152,134.68184,134.68184,0,0,1,188.97754,0,11.99992,11.99992,0,1,0,16.8789-17.06152ZM128,184a16,16,0,1,0,16,16A16.01833,16.01833,0,0,0,128,184Z"/> </g>
</svg>